<?xml version="1.0" encoding="utf-8"?>
<!-- Generator: Adobe Illustrator 18.1.1, SVG Export Plug-In . SVG Version: 6.00 Build 0)  -->
<svg version="1.1" id="Layer_1" xmlns="http://www.w3.org/2000/svg" xmlns:xlink="http://www.w3.org/1999/xlink" x="0px" y="0px"
	 viewBox="728 -36 1152 1296" enable-background="new 728 -36 1152 1296" xml:space="preserve">
<defs  xmlns="http://www.w3.org/1999/xhtml">
	<style  type="text/css">
		<![CDATA[
body { background-color: rgb(234, 234, 234); }
#canvas svg { box-shadow: rgba(0, 0, 0, 0.0588235) 0px 3px 2px 0px, rgba(0, 0, 0, 0.0196078) -1px -1px 1px 0px inset; border-width: 1px; border-style: solid; border-color: rgb(226, 226, 226) rgb(226, 226, 226) rgb(206, 206, 206); background-color: white; }
.en-markup-crop-options { top: 18px !important; left: 50% !important; margin-left: -100px !important; width: 200px !important; border: 2px solid rgba(255, 255, 255, 0.380392) !important; border-radius: 4px !important; }
.en-markup-crop-options div div:first-of-type { margin-left: 0px !important; }
			]]>
	</style>
</defs>
<defs  xmlns="http://www.w3.org/1999/xhtml">
	<style  type="text/css"></style>
</defs>
<defs  xmlns="http://www.w3.org/1999/xhtml">
	<style  type="text/css"></style>
</defs>
<text transform="matrix(-1 0 0 -1 1866.3291 -37.1184)" fill="#1E1E1E" font-family="'Futura-Medium'" font-size="157.9311">THE</text>
<text transform="matrix(6.123234e-17 1 -1 6.123234e-17 1593.5391 70.5608)" fill="#1E1E1E" font-family="'Futura-Medium'" font-size="358.9343">Satanic</text>
<text transform="matrix(6.123234e-17 1 -1 6.123234e-17 1238.1943 -37.1198)" fill="#1E1E1E" font-family="'Futura-Medium'" font-size="459.4359">V</text>
<text transform="matrix(6.123234e-17 1 -1 6.123234e-17 1371 257.2063)" fill="#1E1E1E" font-family="'Futura-Medium'" font-size="439.3356">erses</text>
<polygon fill="#412C83" points="1880.7,609 1521.8,752.5 1521.8,465.4 "/>
<text transform="matrix(6.123234e-17 1 -1 6.123234e-17 1371 257.2063)" fill="#1E1E1E" font-family="'Futura-Medium'" font-size="439.3356">erses</text>
<rect x="1515.9" y="581.7" transform="matrix(-0.9659 -0.2588 0.2588 -0.9659 2895.4668 1580.5837)" fill="#FF7E4F" width="71.8" height="35.9"/>
<rect x="1372.3" y="581.7" transform="matrix(-0.9659 -0.2588 0.2588 -0.9659 2613.2114 1543.4241)" fill="#FF7E4F" width="71.8" height="35.9"/>
<rect x="1228.7" y="581.7" transform="matrix(-0.9659 -0.2588 0.2588 -0.9659 2330.9561 1506.2646)" fill="#FF7E4F" width="71.8" height="35.9"/>
<rect x="1085.2" y="581.7" transform="matrix(-0.9659 -0.2588 0.2588 -0.9659 2048.7007 1469.105)" fill="#FF7E4F" width="71.8" height="35.9"/>
<rect x="941.6" y="581.7" transform="matrix(-0.9659 -0.2588 0.2588 -0.9659 1766.4454 1431.9453)" fill="#FF7E4F" width="71.8" height="35.9"/>
<rect x="798" y="581.7" transform="matrix(-0.9659 -0.2588 0.2588 -0.9659 1484.1901 1394.7858)" fill="#FF7E4F" width="71.8" height="35.9"/>
<rect x="1525.2" y="599.1" transform="matrix(-0.9659 0.2588 -0.2588 -0.9659 3228.6355 808.9574)" fill="#FF1500" width="71.8" height="35.9"/>
<rect x="1381.6" y="599.1" transform="matrix(-0.9659 0.2588 -0.2588 -0.9659 2946.3804 846.117)" fill="#FF1500" width="71.8" height="35.9"/>
<rect x="1238" y="599.1" transform="matrix(-0.9659 0.2588 -0.2588 -0.9659 2664.125 883.2767)" fill="#FF1500" width="71.8" height="35.9"/>
<rect x="1094.5" y="599.1" transform="matrix(-0.9659 0.2588 -0.2588 -0.9659 2381.8699 920.4363)" fill="#FF1500" width="71.8" height="35.9"/>
<rect x="950.9" y="599.1" transform="matrix(-0.9659 0.2588 -0.2588 -0.9659 2099.6145 957.5959)" fill="#FF1500" width="71.8" height="35.9"/>
<rect x="807.3" y="599.1" transform="matrix(-0.9659 0.2588 -0.2588 -0.9659 1817.3591 994.7556)" fill="#FF1500" width="71.8" height="35.9"/>
<rect x="1372.3" y="452.5" transform="matrix(-0.9659 -0.2588 0.2588 -0.9659 2646.655 1289.3944)" fill="#FF7E4F" width="71.8" height="35.9"/>
<rect x="1381.6" y="692.4" transform="matrix(-0.9659 0.2588 -0.2588 -0.9659 2970.5342 1029.583)" fill="#FF7E4F" width="71.8" height="35.9"/>
<rect x="1228.7" y="294.6" transform="matrix(-0.9659 -0.2588 0.2588 -0.9659 2405.2754 941.7539)" fill="#FF7E4F" width="71.8" height="35.9"/>
<rect x="1228.7" y="438.2" transform="matrix(-0.9659 -0.2588 0.2588 -0.9659 2368.1157 1224.0092)" fill="#FF7E4F" width="71.8" height="35.9"/>
<rect x="1238" y="706.7" transform="matrix(-0.9659 0.2588 -0.2588 -0.9659 2691.9949 1094.9681)" fill="#FF7E4F" width="71.8" height="35.9"/>
<rect x="1238" y="850.3" transform="matrix(-0.9659 0.2588 -0.2588 -0.9659 2729.1545 1377.2235)" fill="#FF7E4F" width="71.8" height="35.9"/>
<rect x="1085.2" y="136.7" transform="matrix(-0.9659 -0.2588 0.2588 -0.9659 2163.8955 594.1136)" fill="#FF7E4F" width="71.8" height="35.9"/>
<rect x="1085.2" y="280.2" transform="matrix(-0.9659 -0.2588 0.2588 -0.9659 2126.7361 876.3689)" fill="#FF7E4F" width="71.8" height="35.9"/>
<rect x="1085.2" y="423.8" transform="matrix(-0.9659 -0.2588 0.2588 -0.9659 2089.5764 1158.6241)" fill="#FF7E4F" width="71.8" height="35.9"/>
<rect x="1094.5" y="721.1" transform="matrix(-0.9659 0.2588 -0.2588 -0.9659 2413.4556 1160.3533)" fill="#FF7E4F" width="71.8" height="35.9"/>
<rect x="1094.5" y="864.7" transform="matrix(-0.9659 0.2588 -0.2588 -0.9659 2450.615 1442.6085)" fill="#FF7E4F" width="71.8" height="35.9"/>
<rect x="1094.5" y="1008.2" transform="matrix(-0.9659 0.2588 -0.2588 -0.9659 2487.7747 1724.8641)" fill="#FF7E4F" width="71.8" height="35.9"/>
<rect x="941.6" y="-21.3" transform="matrix(-0.9659 -0.2588 0.2588 -0.9659 1922.5159 246.473)" fill="#FF7E4F" width="71.8" height="35.9"/>
<rect x="941.6" y="122.3" transform="matrix(-0.9659 -0.2588 0.2588 -0.9659 1885.3563 528.7283)" fill="#FF7E4F" width="71.8" height="35.9"/>
<rect x="941.6" y="265.9" transform="matrix(-0.9659 -0.2588 0.2588 -0.9659 1848.1967 810.9836)" fill="#FF7E4F" width="71.8" height="35.9"/>
<rect x="941.6" y="409.5" transform="matrix(-0.9659 -0.2588 0.2588 -0.9659 1811.037 1093.2389)" fill="#FF7E4F" width="71.8" height="35.9"/>
<rect x="950.9" y="735.5" transform="matrix(-0.9659 0.2588 -0.2588 -0.9659 2134.9163 1225.7385)" fill="#FF7E4F" width="71.8" height="35.9"/>
<rect x="950.9" y="879" transform="matrix(-0.9659 0.2588 -0.2588 -0.9659 2172.0757 1507.9938)" fill="#FF7E4F" width="71.8" height="35.9"/>
<rect x="950.9" y="1022.6" transform="matrix(-0.9659 0.2588 -0.2588 -0.9659 2209.2354 1790.2491)" fill="#FF7E4F" width="71.8" height="35.9"/>
<rect x="950.9" y="1166.2" transform="matrix(-0.9659 0.2588 -0.2588 -0.9659 2246.395 2072.5044)" fill="#FF7E4F" width="71.8" height="35.9"/>
<rect x="798" y="-35.6" transform="matrix(-0.9659 -0.2588 0.2588 -0.9659 1643.9766 181.0878)" fill="#FF7E4F" width="71.8" height="35.9"/>
<rect x="798" y="108" transform="matrix(-0.9659 -0.2588 0.2588 -0.9659 1606.8169 463.343)" fill="#FF7E4F" width="71.8" height="35.9"/>
<rect x="798" y="251.5" transform="matrix(-0.9659 -0.2588 0.2588 -0.9659 1569.6572 745.5983)" fill="#FF7E4F" width="71.8" height="35.9"/>
<rect x="798" y="395.1" transform="matrix(-0.9659 -0.2588 0.2588 -0.9659 1532.4977 1027.8536)" fill="#FF7E4F" width="71.8" height="35.9"/>
<rect x="807.3" y="749.8" transform="matrix(-0.9659 0.2588 -0.2588 -0.9659 1856.3767 1291.1238)" fill="#FF7E4F" width="71.8" height="35.9"/>
<rect x="807.3" y="893.4" transform="matrix(-0.9659 0.2588 -0.2588 -0.9659 1893.5364 1573.379)" fill="#FF7E4F" width="71.8" height="35.9"/>
<rect x="807.3" y="1037" transform="matrix(-0.9659 0.2588 -0.2588 -0.9659 1930.696 1855.6344)" fill="#FF7E4F" width="71.8" height="35.9"/>
<rect x="807.3" y="1180.5" transform="matrix(-0.9659 0.2588 -0.2588 -0.9659 1967.8557 2137.8896)" fill="#FF7E4F" width="71.8" height="35.9"/>
<rect x="1372.3" y="488.4" transform="matrix(-0.9659 -0.2588 0.2588 -0.9659 2637.3652 1359.9583)" fill="#FF1500" width="71.8" height="35.9"/>
<rect x="1381.6" y="728.3" transform="matrix(-0.9659 0.2588 -0.2588 -0.9659 2979.824 1100.147)" fill="#FF1500" width="71.8" height="35.9"/>
<rect x="1228.7" y="330.5" transform="matrix(-0.9659 -0.2588 0.2588 -0.9659 2395.9854 1012.3177)" fill="#FF1500" width="71.8" height="35.9"/>
<rect x="1228.7" y="474.1" transform="matrix(-0.9659 -0.2588 0.2588 -0.9659 2358.8259 1294.573)" fill="#FF1500" width="71.8" height="35.9"/>
<rect x="1238" y="742.6" transform="matrix(-0.9659 0.2588 -0.2588 -0.9659 2701.2847 1165.532)" fill="#FF1500" width="71.8" height="35.9"/>
<rect x="1238" y="886.2" transform="matrix(-0.9659 0.2588 -0.2588 -0.9659 2738.4443 1447.7872)" fill="#FF1500" width="71.8" height="35.9"/>
<rect x="1085.2" y="172.6" transform="matrix(-0.9659 -0.2588 0.2588 -0.9659 2154.6057 664.6774)" fill="#FF1500" width="71.8" height="35.9"/>
<rect x="1085.2" y="316.1" transform="matrix(-0.9659 -0.2588 0.2588 -0.9659 2117.446 946.9327)" fill="#FF1500" width="71.8" height="35.9"/>
<rect x="1085.2" y="459.7" transform="matrix(-0.9659 -0.2588 0.2588 -0.9659 2080.2864 1229.188)" fill="#FF1500" width="71.8" height="35.9"/>
<rect x="1094.5" y="757" transform="matrix(-0.9659 0.2588 -0.2588 -0.9659 2422.7454 1230.9172)" fill="#FF1500" width="71.8" height="35.9"/>
<rect x="1094.5" y="900.6" transform="matrix(-0.9659 0.2588 -0.2588 -0.9659 2459.905 1513.1725)" fill="#FF1500" width="71.8" height="35.9"/>
<rect x="1094.5" y="1044.1" transform="matrix(-0.9659 0.2588 -0.2588 -0.9659 2497.0647 1795.4279)" fill="#FF1500" width="71.8" height="35.9"/>
<rect x="941.6" y="14.6" transform="matrix(-0.9659 -0.2588 0.2588 -0.9659 1913.2261 317.0368)" fill="#FF1500" width="71.8" height="35.9"/>
<rect x="941.6" y="158.2" transform="matrix(-0.9659 -0.2588 0.2588 -0.9659 1876.0664 599.2921)" fill="#FF1500" width="71.8" height="35.9"/>
<rect x="941.6" y="301.8" transform="matrix(-0.9659 -0.2588 0.2588 -0.9659 1838.9067 881.5474)" fill="#FF1500" width="71.8" height="35.9"/>
<rect x="941.6" y="445.4" transform="matrix(-0.9659 -0.2588 0.2588 -0.9659 1801.7471 1163.8027)" fill="#FF1500" width="71.8" height="35.9"/>
<rect x="950.9" y="771.3" transform="matrix(-0.9659 0.2588 -0.2588 -0.9659 2144.2061 1296.3024)" fill="#FF1500" width="71.8" height="35.9"/>
<rect x="950.9" y="914.9" transform="matrix(-0.9659 0.2588 -0.2588 -0.9659 2181.3657 1578.5577)" fill="#FF1500" width="71.8" height="35.9"/>
<rect x="950.9" y="1058.5" transform="matrix(-0.9659 0.2588 -0.2588 -0.9659 2218.5254 1860.813)" fill="#FF1500" width="71.8" height="35.9"/>
<rect x="950.9" y="1202.1" transform="matrix(-0.9659 0.2588 -0.2588 -0.9659 2255.6851 2143.0684)" fill="#FF1500" width="71.8" height="35.9"/>
<rect x="798" y="0.3" transform="matrix(-0.9659 -0.2588 0.2588 -0.9659 1634.6866 251.6516)" fill="#FF1500" width="71.8" height="35.9"/>
<rect x="798" y="143.8" transform="matrix(-0.9659 -0.2588 0.2588 -0.9659 1597.527 533.9069)" fill="#FF1500" width="71.8" height="35.9"/>
<rect x="798" y="287.4" transform="matrix(-0.9659 -0.2588 0.2588 -0.9659 1560.3673 816.1622)" fill="#FF1500" width="71.8" height="35.9"/>
<rect x="798" y="431" transform="matrix(-0.9659 -0.2588 0.2588 -0.9659 1523.2078 1098.4177)" fill="#FF1500" width="71.8" height="35.9"/>
<rect x="807.3" y="785.7" transform="matrix(-0.9659 0.2588 -0.2588 -0.9659 1865.6666 1361.6875)" fill="#FF1500" width="71.8" height="35.9"/>
<rect x="807.3" y="929.3" transform="matrix(-0.9659 0.2588 -0.2588 -0.9659 1902.8263 1643.9429)" fill="#FF1500" width="71.8" height="35.9"/>
<rect x="807.3" y="1072.9" transform="matrix(-0.9659 0.2588 -0.2588 -0.9659 1939.9858 1926.1982)" fill="#FF1500" width="71.8" height="35.9"/>
<rect x="807.3" y="1216.4" transform="matrix(-0.9659 0.2588 -0.2588 -0.9659 1977.1456 2208.4536)" fill="#FF1500" width="71.8" height="35.9"/>
</svg>
