<?xml version="1.0" encoding="utf-8"?>
<!-- Generator: Adobe Illustrator 18.1.1, SVG Export Plug-In . SVG Version: 6.00 Build 0)  -->
<svg version="1.1" id="Layer_1" xmlns="http://www.w3.org/2000/svg" xmlns:xlink="http://www.w3.org/1999/xlink" x="0px" y="0px"
	 viewBox="0 0 612 1008" enable-background="new 0 0 612 1008" xml:space="preserve">
<path fill="none" stroke="#CF2027" stroke-miterlimit="10" d="M367.7,547.9c-47.4,2.3-64.8,4.9-64.5,9.6"/>
<path fill="none" stroke="#FFFFFF" stroke-width="2" stroke-miterlimit="10" d="M331.6,550.3"/>
<path fill="none" stroke="#FFFFFF" stroke-width="2" stroke-miterlimit="10" d="M338,549.9"/>
<line fill="none" stroke="#FFFFFF" stroke-width="2" stroke-miterlimit="10" x1="338.8" y1="549.8" x2="338.3" y2="549.8"/>
<line fill="none" stroke="#FFFFFF" stroke-width="2" stroke-miterlimit="10" x1="370.4" y1="547.9" x2="338.8" y2="549.8"/>
<line fill="none" stroke="#CF2027" stroke-miterlimit="10" x1="192.4" y1="697.7" x2="359.7" y2="673.2"/>
<line fill="none" stroke="#FFFFFF" stroke-width="2" stroke-miterlimit="10" x1="192.4" y1="697.7" x2="203.1" y2="696.1"/>
<path fill="none" stroke="#CF2027" stroke-miterlimit="10" d="M350.4,927c31.6-113-24-196.4-155.4-233.2"/>
<path fill="none" stroke="#CF2027" stroke-miterlimit="10" d="M353.7,962.9c36.2-122.6-20.8-196.6-178.1-243"/>
<path fill="none" stroke="#CF2027" stroke-miterlimit="10" d="M350.2,967c36.2-122.6-20.8-196.6-178.1-243"/>
<path fill="none" stroke="#CF2027" stroke-miterlimit="10" d="M347.1,931.2c31.6-113-24-196.4-155.4-233.2"/>
<line fill="none" stroke="#CF2027" stroke-miterlimit="10" x1="172.1" y1="724.3" x2="195.2" y2="693.4"/>
<path fill="none" stroke="#CF2027" stroke-miterlimit="10" d="M172.1,737.9"/>
<line fill="none" stroke="#CF2027" stroke-miterlimit="10" x1="194.9" y1="693.5" x2="359.7" y2="669.5"/>
<path fill="none" stroke="#CF2027" stroke-miterlimit="10" d="M276.7,685.8c-9.4,9.4-9.4,33,0,42.4"/>
<path fill="none" stroke="#CF2027" stroke-miterlimit="10" d="M359.8,571.8c-85.7,47.1-46.2,40.5-0.8,94.2"/>
<path fill="none" stroke="#CF2027" stroke-miterlimit="10" d="M360.3,563.1c-85.7,47.1-46.2,40.5-0.8,94.2"/>
<path fill="none" stroke="#CF2027" stroke-miterlimit="10" d="M288.7,606.1c21.6-58.7,66.5-72.5,143.4-44.2"/>
<path fill="none" stroke="#CF2027" stroke-miterlimit="10" d="M299.8,595.2c21.8-52.4,68-67.5,128.9-42.1"/>
<path fill="none" stroke="#010101" stroke-miterlimit="10" d="M426.1,560.1"/>
<line fill="none" stroke="#010101" stroke-miterlimit="10" x1="432.1" y1="576" x2="428.3" y2="565.8"/>
<path fill="none" stroke="#CF2027" stroke-miterlimit="10" d="M370.4,541c-47.4-2.3-64.8-4.9-64.5-9.6"/>
<path fill="none" stroke="#CF2027" stroke-miterlimit="10" d="M301.1,195.6c-12.2,82.7,3.7,52.4,63.7,49.2"/>
<path fill="none" stroke="#CF2027" stroke-miterlimit="10" d="M295.9,190.1c-12.2,82.7,3.7,52.4,63.7,49.2"/>
<rect x="355.5" y="454.7" fill="none" stroke="#FFFFFF" stroke-miterlimit="10" width="1.5" height="0.7"/>
<path fill="none" stroke="#CF2027" stroke-miterlimit="10" d="M356.5,455.7c-46.1,0.8-63.6-1.2-63.7-6.6"/>
<path fill="none" stroke="#CF2027" stroke-miterlimit="10" d="M358.5,458.8c-47.6-0.8-65.7,1.1-65.8,6.6"/>
<path fill="#CF2027" stroke="#CF2027" stroke-miterlimit="10" d="M359,456.2"/>
<line fill="#CF2027" stroke="#CF2027" stroke-miterlimit="10" x1="356.1" y1="455.9" x2="358.3" y2="458.8"/>
<rect x="355.5" y="452.5" fill="none" stroke="#FFFFFF" stroke-miterlimit="10" width="1.5" height="0.7"/>
<rect x="357" y="441.2" fill="none" stroke="#FFFFFF" stroke-miterlimit="10" width="6.6" height="6.3"/>
<path fill="none" stroke="#CF2027" stroke-miterlimit="10" d="M317.2,525.4c-9.5-27.8,3.8-48.8,41.8-66.5"/>
<path fill="none" stroke="#CF2027" stroke-miterlimit="10" d="M317.2,525.4"/>
<path fill="none" stroke="#CF2027" stroke-miterlimit="10" d="M318.7,521.2c-10.6-29.7,2.7-53.2,37.3-65.6"/>
<line fill="none" stroke="#CF2027" stroke-width="0.5" stroke-miterlimit="10" x1="293.4" y1="475.1" x2="356.1" y2="458.8"/>
<line fill="none" stroke="#CF2027" stroke-width="0.5" stroke-miterlimit="10" x1="295.7" y1="465.5" x2="357.3" y2="459.1"/>
<line fill="none" stroke="#CF2027" stroke-width="0.5" stroke-miterlimit="10" x1="293.4" y1="465.8" x2="295.7" y2="465.5"/>
<path fill="none" stroke="#CF2027" stroke-miterlimit="10" d="M318.7,275.2c0.3-0.2,0.7-0.3,1-0.4"/>
<path fill="none" stroke="#CF2027" stroke-miterlimit="10" d="M347.2,271.4c4.6,2,8.3,5.4,10.3,9.8c5.4,12-3.3,27.6-19.6,35
	c-16.2,7.3-33.7,3.5-39.1-8.5c-5.4-12,3.3-27.6,19.6-35c0.1-0.1,0.2-0.1,0.3-0.2"/>
<path fill="none" stroke="#CF2027" stroke-miterlimit="10" d="M346.8,267.4c2.7,1.9,4.9,4.5,6.3,7.6c5.4,12-3.3,27.6-19.6,35
	c-16.2,7.3-33.7,3.5-39.1-8.5c-5.4-12,3.3-27.6,19.6-35c3.2-1.5,6.5-2.5,9.7-3.1"/>
<path fill="none" stroke="#B92025" stroke-miterlimit="10" d="M323.2,266.3c-8.9,12.2-4.8,38.8,7.4,47.8"/>
<path fill="none" stroke="#CF2027" stroke-miterlimit="10" d="M347.2,139.7c4.6,2,8.3,5.4,10.3,9.8c5.4,12-3.3,27.6-19.6,35
	c-16.2,7.3-33.7,3.5-39.1-8.5c-5.4-12,3.3-27.6,19.6-35c0.1-0.1,0.2-0.1,0.3-0.2"/>
<path fill="none" stroke="#CF2027" stroke-miterlimit="10" d="M346.8,135.8c2.7,1.9,4.9,4.5,6.3,7.6c5.4,12-3.3,27.6-19.6,35
	c-16.2,7.3-33.7,3.5-39.1-8.5c-5.4-12,3.3-27.6,19.6-35c3.2-1.5,6.5-2.5,9.7-3.1"/>
<path fill="none" stroke="#B92025" stroke-miterlimit="10" d="M323.2,134.6c-8.9,12.2-4.8,38.8,7.4,47.8"/>
<path fill="none" stroke="#CF2027" stroke-miterlimit="10" d="M357.3,459.7"/>
<path fill="none" stroke="#CF2027" stroke-miterlimit="10" d="M354.7,458.8"/>
<line fill="none" stroke="#CF2027" stroke-width="0.5" stroke-miterlimit="10" x1="306.9" y1="499.6" x2="320.5" y2="487.9"/>
<line fill="none" stroke="#CF2027" stroke-width="0.5" stroke-miterlimit="10" x1="311.8" y1="502.3" x2="315.4" y2="499"/>
<line fill="none" stroke="#CF2027" stroke-width="0.5" stroke-miterlimit="10" x1="294.8" y1="483.1" x2="352.9" y2="460.6"/>
<path fill="none" stroke="#CF2027" stroke-miterlimit="10" d="M294.8,483.1"/>
<line fill="none" stroke="#CF2027" stroke-width="0.5" stroke-miterlimit="10" x1="297.5" y1="489.7" x2="351.4" y2="462.7"/>
<path fill="none" stroke="#CF2027" stroke-miterlimit="10" d="M297.5,489.7"/>
<line fill="none" stroke="#CF2027" stroke-width="0.5" stroke-miterlimit="10" x1="301.6" y1="495.4" x2="329.3" y2="477.7"/>
<path fill="none" stroke="#CF2027" stroke-miterlimit="10" d="M301.6,495.4"/>
<rect x="355.5" y="452.6" fill="none" stroke="#FFFFFF" stroke-miterlimit="10" width="1.5" height="0.7"/>
<path fill="none" stroke="#CF2027" stroke-miterlimit="10" d="M356.5,452.3c-46.1-0.8-63.6,1.2-63.7,6.6"/>
<path fill="none" stroke="#CF2027" stroke-miterlimit="10" d="M358.5,449.2c-47.6,0.8-65.7-1.1-65.8-6.6"/>
<path fill="#CF2027" stroke="#CF2027" stroke-miterlimit="10" d="M359,444.6"/>
<line fill="#CF2027" stroke="#CF2027" stroke-miterlimit="10" x1="356.1" y1="452.1" x2="358.3" y2="449.2"/>
<path fill="none" stroke="#CF2027" stroke-miterlimit="10" d="M316.9,383.4c-9,27.4,4.4,48.1,42.1,65.7"/>
<path fill="none" stroke="#CF2027" stroke-miterlimit="10" d="M318.7,386.8c-10.6,29.7,2.7,53.2,37.3,65.6"/>
<line fill="none" stroke="#CF2027" stroke-width="0.5" stroke-miterlimit="10" x1="293.4" y1="432.9" x2="356.1" y2="449.2"/>
<line fill="none" stroke="#CF2027" stroke-width="0.5" stroke-miterlimit="10" x1="295.7" y1="442.5" x2="357.3" y2="448.9"/>
<line fill="none" stroke="#CF2027" stroke-width="0.5" stroke-miterlimit="10" x1="293.4" y1="442.3" x2="295.7" y2="442.5"/>
<path fill="none" stroke="#CF2027" stroke-miterlimit="10" d="M357.3,448.3"/>
<path fill="none" stroke="#CF2027" stroke-miterlimit="10" d="M354.7,449.2"/>
<line fill="none" stroke="#CF2027" stroke-width="0.5" stroke-miterlimit="10" x1="306.9" y1="408.4" x2="320.5" y2="420.1"/>
<line fill="none" stroke="#CF2027" stroke-width="0.5" stroke-miterlimit="10" x1="311.8" y1="405.7" x2="315.4" y2="409"/>
<line fill="none" stroke="#CF2027" stroke-width="0.5" stroke-miterlimit="10" x1="294.8" y1="424.9" x2="352.9" y2="447.4"/>
<path fill="none" stroke="#CF2027" stroke-miterlimit="10" d="M294.8,424.9"/>
<line fill="none" stroke="#CF2027" stroke-width="0.5" stroke-miterlimit="10" x1="297.5" y1="418.3" x2="351.4" y2="445.3"/>
<path fill="none" stroke="#CF2027" stroke-miterlimit="10" d="M297.5,418.3"/>
<line fill="none" stroke="#CF2027" stroke-width="0.5" stroke-miterlimit="10" x1="301.6" y1="412.6" x2="329.3" y2="430.4"/>
<path fill="none" stroke="#CF2027" stroke-miterlimit="10" d="M301.6,412.6"/>
<line fill="none" stroke="#CF2027" stroke-width="0.5" stroke-miterlimit="10" x1="350.3" y1="446.4" x2="358.1" y2="449.5"/>
<line fill="none" stroke="#CF2027" stroke-width="0.5" stroke-miterlimit="10" x1="352.1" y1="460.9" x2="357.8" y2="458.6"/>
<path fill="none" stroke="#CF2027" stroke-miterlimit="10" d="M296.4,367.5c47.1-6.3,64.1-10.4,63.5-15.1"/>
<path fill="none" stroke="#CF2027" stroke-miterlimit="10" d="M370.2,302.7C353.7,363,310.1,380.6,231,359"/>
<path fill="none" stroke="#CF2027" stroke-miterlimit="10" d="M360,314.5c-17.3,54.1-61.9,73-124.9,52.9"/>
<line fill="none" stroke="#010101" stroke-miterlimit="10" x1="231" y1="358.4" x2="235.7" y2="368.2"/>
<path fill="none" stroke="#CF2027" stroke-miterlimit="10" d="M294.3,374.5c47.5-1.8,64.9-0.7,65.1,4.1"/>
</svg>
